PathFileType	4	(X/Y/Z)	C:/Users/beibeiliu/ov580/test_trc/capture2\sequence.6_training_dense_right.trc
DataRate	CameraRate	NumFrames	NumMarkers	Units	OrigDataRate	OrigDataStartFrame	OrigNumFrames
120	120	8	19	mm	120	309	353
Frame#	Time	ThumbCMC			ThumbMCP			ThumbIP			ThumbTip			IndexMCP			IndexPIP			IndexTip			MiddleMCP			MiddlePIP			MiddleTip			RingMCP			RingPIP			RingTip			PinkyMCP			PinkyPIP			PinkyTip			BackHand1			BackHand2			BackHand3	
		X0	Y0	Z0	X1	Y1	Z1	X2	Y2	Z2	X3	Y3	Z3	X4	Y4	Z4	X5	Y5	Z5	X6	Y6	Z6	X7	Y7	Z7	X8	Y8	Z8	X9	Y9	Z9	X10	Y10	Z10	X11	Y11	Z11	X12	Y12	Z12	X13	Y13	Z13	X14	Y14	Z14	X15	Y15	Z15	X16	Y16	Z16	X17	Y17	Z17	X18	Y18	Z18	
308	2.56667	151.568	74.0373	-27.9854	129.604	80.7081	-52.8316	121.221	77.6174	-80.8132	121.521	54.5817	-100.076	186.539	63.5495	-91.8175	188.275	66.7764	-120.301	189.784	66.8499	-139.991	156.885	47.5825	-100.602	129.184	55.7879	-98.9421	129.577	57.9098	-61.1179	142.428	32.6619	-92.7452	118.517	42.9787	-79.2458	129.144	49.7598	-48.9159	141.155	19.0175	-79.9269	117.684	32.8249	-65.7448	136.459	38.604	-36.3939	175.213	18.7586	-46.4379	172.512	18.7536	-16.2965	181.572	50.7158	-30.376	
309	2.575	150.76	75.2494	-28.21	129.763	81.1856	-59.8693	120.968	76.9737	-87.6915	121.8	53.9789	-99.4041	187.489	69.3676	-93.8235	189.166	68.8265	-117.056	191.229	68.1451	-142.26	160.027	47.3191	-98.6097	126.398	56.1748	-96.396	129.145	56.8646	-61.6046	142.733	35.2508	-93.1536	117.851	43.5424	-79.8093	129.722	47.5311	-46.184	137.734	18.4893	-81.455	117.708	32.5048	-67.9007	132.963	38.9057	-38.1649	177.217	21.5176	-43.3969	172.296	18.2584	-13.9491	183.182	49.9122	-31.9959	
310	2.58333	149.75	78.2098	-30.9027	129.379	78.602	-57.5147	119.157	79.106	-84.7093	121.611	53.6195	-100.376	187.024	68.7627	-95.1069	188.875	69.7511	-116.344	191.308	66.8789	-140.55	158.542	48.9447	-99.3615	127.746	54.8285	-99.4697	128.383	60.476	-62.0112	145.525	30.7837	-92.1415	119.734	47.1258	-79.4297	130.625	50.5814	-48.5274	137.132	18.3209	-83.5391	120.138	36.1269	-66.452	135.767	38.8303	-38.2277	178.645	22.5683	-46.7806	172.045	22.0286	-14.9581	181.54	52.1822	-32.8482	
311	2.59167	149.858	76.1292	-30.3753	127.253	81.5083	-55.4515	120.449	76.5324	-81.9689	119.203	55.3406	-101.505	186.417	67.2115	-93.8345	188.064	70.6901	-116.318	193.255	70.7073	-145.202	157.899	52.1054	-101.152	127.099	56.4732	-99.926	126.804	59.0908	-63.6297	145.962	35.0842	-92.2468	117.911	46.1957	-79.4463	130.465	49.9927	-48.0772	139.059	16.4884	-82.0932	116.227	31.856	-66.9499	134.565	40.6994	-41.0221	175.946	22.1804	-46.5293	172.305	20.3664	-16.418	180.521	51.5561	-31.2539	
312	2.6	147.45	77.2954	-28.9028	125.926	80.7249	-56.9161	116.708	77.5879	-86.1419	119.098	51.6676	-101.341	185.494	71.1866	-94.9018	187.32	70.9783	-119.466	190.213	69.5739	-140.728	158.404	52.3259	-100.789	126.517	59.0166	-99.8887	126.878	59.5553	-64.0283	142.281	34.517	-95.043	118.592	45.4992	-81.7415	129.933	50.5351	-48.3332	137.844	21.4377	-84.1724	118.63	35.2573	-67.929	134.577	37.2904	-37.5526	177.233	18.6011	-46.2355	173.256	24.2014	-18.0985	182.954	54.8968	-32.5013	
313	2.60833	147.183	75.5921	-31.4024	122.917	81.7469	-57.0822	115.348	78.0597	-85.1304	116.909	53.9534	-104.728	183.155	67.4639	-92.4485	185.395	74.4112	-119.675	185.893	70.8678	-143.136	156.938	47.6887	-101.812	126.447	55.8436	-99.9506	126.385	59.7697	-63.7013	144.955	30.5983	-93.2257	116.898	43.3252	-82.6736	126.545	48.8794	-50.0099	136.943	19.8073	-83.98	117.93	36.3534	-67.8131	130.067	37.6076	-38.2981	176.117	22.6192	-49.0469	171.504	19.3354	-13.2011	180.167	52.3412	-30.8922	
314	2.61667	144.996	79.6019	-27.1279	123.16	79.6213	-54.7277	117.516	74.2791	-86.749	118.983	53.4823	-103.643	184.706	70.5453	-93.8562	184.972	74.1883	-118.112	177.003	70.5305	-144.835	158.339	50.9888	-100.828	125.791	58.7634	-98.5953	126.054	56.0623	-64.7839	144.195	33.5216	-93.7187	119.05	45.7146	-83.7637	128.7	51.3646	-49.8325	141.56	21.1585	-82.4765	118.097	35.0999	-69.8325	130.774	42.5181	-41.3321	175.563	20.4099	-48.6161	171.492	25.1277	-16.1709	179.379	55.8603	-29.9543	
315	2.625	144.423	77.1926	-25.8728	122.2	80.1791	-54.3991	116.274	75.9408	-83.4539	116.869	57.0872	-105.262	182.447	69.6473	-91.7232	181.1	70.1893	-118.25	162.822	72.4872	-146.815	159.31	53.2945	-98.8621	125.544	56.5866	-99.8274	126.202	60.774	-65.6783	141.919	34.5171	-95.0784	118.026	44.8448	-83.8695	128.536	51.7566	-49.3857	137.174	22.0611	-84.7699	117.907	35.7343	-68.9719	132.348	39.121	-37.7994	176.424	23.5633	-48.3417	170.276	23.9048	-14.3694	180.52	55.4966	-30.7746	
